<mxfile host="app.diagrams.net" modified="2024-01-23T21:42:25.680Z" agent="Mozilla/5.0 (Macintosh; Intel Mac OS X 10_15_7) AppleWebKit/537.36 (KHTML, like Gecko) Chrome/120.0.0.0 Safari/537.36" etag="8AyuxrWU0N1vvcg0ldPD" version="22.1.21" type="google">
  <diagram name="Page-1" id="DOPD79JqrsDpMU65tloz">
    <mxGraphModel grid="1" page="1" gridSize="10" guides="1" tooltips="1" connect="1" arrows="1" fold="1" pageScale="1" pageWidth="1100" pageHeight="850" math="0" shadow="0">
      <root>
        <mxCell id="0" />
        <mxCell id="1" parent="0" />
        <mxCell id="kGPBkyhosEW2F8tpYhtq-1" value="" style="rounded=1;whiteSpace=wrap;html=1;fillColor=#d5e8d4;strokeColor=#82b366;" vertex="1" parent="1">
          <mxGeometry x="240" y="210" width="140" height="285" as="geometry" />
        </mxCell>
        <mxCell id="kGPBkyhosEW2F8tpYhtq-2" value="Webapp" style="rounded=1;whiteSpace=wrap;html=1;" vertex="1" parent="1">
          <mxGeometry x="250" y="255" width="120" height="60" as="geometry" />
        </mxCell>
        <mxCell id="kGPBkyhosEW2F8tpYhtq-3" value="IOS" style="rounded=1;whiteSpace=wrap;html=1;" vertex="1" parent="1">
          <mxGeometry x="250" y="335" width="120" height="60" as="geometry" />
        </mxCell>
        <mxCell id="kGPBkyhosEW2F8tpYhtq-4" value="Android" style="rounded=1;whiteSpace=wrap;html=1;" vertex="1" parent="1">
          <mxGeometry x="250" y="405" width="120" height="60" as="geometry" />
        </mxCell>
        <mxCell id="kGPBkyhosEW2F8tpYhtq-5" value="user" style="text;html=1;strokeColor=none;fillColor=none;align=center;verticalAlign=middle;whiteSpace=wrap;rounded=0;" vertex="1" parent="1">
          <mxGeometry x="270" y="180" width="60" height="30" as="geometry" />
        </mxCell>
        <mxCell id="kGPBkyhosEW2F8tpYhtq-6" value="" style="shape=actor;whiteSpace=wrap;html=1;strokeColor=#788AA3;fontColor=#46495D;fillColor=#B2C9AB;" vertex="1" parent="1">
          <mxGeometry x="180" y="345" width="40" height="60" as="geometry" />
        </mxCell>
        <mxCell id="kGPBkyhosEW2F8tpYhtq-7" value="" style="shape=actor;whiteSpace=wrap;html=1;strokeColor=#788AA3;fontColor=#46495D;fillColor=#B2C9AB;" vertex="1" parent="1">
          <mxGeometry x="180" y="420" width="40" height="60" as="geometry" />
        </mxCell>
        <mxCell id="kGPBkyhosEW2F8tpYhtq-8" value="" style="shape=actor;whiteSpace=wrap;html=1;strokeColor=#788AA3;fontColor=#46495D;fillColor=#B2C9AB;" vertex="1" parent="1">
          <mxGeometry x="180" y="250" width="40" height="60" as="geometry" />
        </mxCell>
        <mxCell id="kGPBkyhosEW2F8tpYhtq-9" value="Load Balancer&lt;br&gt;" style="rounded=0;whiteSpace=wrap;html=1;fillColor=#ffe6cc;strokeColor=#d79b00;" vertex="1" parent="1">
          <mxGeometry x="560" y="101.25" width="55" height="808.75" as="geometry" />
        </mxCell>
        <mxCell id="kGPBkyhosEW2F8tpYhtq-10" value="" style="endArrow=classic;startArrow=classic;html=1;rounded=0;" edge="1" parent="1">
          <mxGeometry width="50" height="50" relative="1" as="geometry">
            <mxPoint x="640.0000000000005" y="342.5" as="sourcePoint" />
            <mxPoint x="640.0000000000005" y="342.5" as="targetPoint" />
          </mxGeometry>
        </mxCell>
        <mxCell id="kGPBkyhosEW2F8tpYhtq-11" value="" style="shape=image;html=1;verticalLabelPosition=bottom;verticalAlign=top;imageAspect=0;image=img/clipart/Gear_128x128.png;strokeColor=#788AA3;fontColor=#46495D;fillColor=#B2C9AB;" vertex="1" parent="1">
          <mxGeometry x="565.0000000000005" y="275" width="50" height="60" as="geometry" />
        </mxCell>
        <mxCell id="kGPBkyhosEW2F8tpYhtq-12" value="API Gateway&lt;br&gt;- Authentication&lt;br&gt;- authorization&lt;br&gt;- rate limiting&lt;br&gt;" style="rounded=0;whiteSpace=wrap;html=1;fillColor=#b1ddf0;strokeColor=#10739e;" vertex="1" parent="1">
          <mxGeometry x="660" y="215.5" width="150" height="304" as="geometry" />
        </mxCell>
        <mxCell id="kGPBkyhosEW2F8tpYhtq-13" value="API Gateway&lt;br&gt;-&amp;nbsp; rate limiting&lt;br&gt;" style="rounded=0;whiteSpace=wrap;html=1;fillColor=#b1ddf0;strokeColor=#10739e;" vertex="1" parent="1">
          <mxGeometry x="680" y="230.5" width="150" height="304" as="geometry" />
        </mxCell>
        <mxCell id="kGPBkyhosEW2F8tpYhtq-15" value="Event&amp;nbsp; Service" style="rounded=1;whiteSpace=wrap;html=1;fillColor=#dae8fc;strokeColor=#6c8ebf;" vertex="1" parent="1">
          <mxGeometry x="940" y="200" width="120" height="60" as="geometry" />
        </mxCell>
        <mxCell id="kGPBkyhosEW2F8tpYhtq-16" value="Event&amp;nbsp; Service" style="rounded=1;whiteSpace=wrap;html=1;fillColor=#dae8fc;strokeColor=#6c8ebf;" vertex="1" parent="1">
          <mxGeometry x="950" y="210" width="120" height="60" as="geometry" />
        </mxCell>
        <mxCell id="kGPBkyhosEW2F8tpYhtq-17" value="Fetch Estimate Service" style="rounded=1;whiteSpace=wrap;html=1;fillColor=#dae8fc;strokeColor=#6c8ebf;" vertex="1" parent="1">
          <mxGeometry x="960" y="220" width="120" height="60" as="geometry" />
        </mxCell>
        <mxCell id="kGPBkyhosEW2F8tpYhtq-18" value="Event&amp;nbsp; Service" style="rounded=1;whiteSpace=wrap;html=1;fillColor=#dae8fc;strokeColor=#6c8ebf;" vertex="1" parent="1">
          <mxGeometry x="1000" y="380" width="124" height="60" as="geometry" />
        </mxCell>
        <mxCell id="kGPBkyhosEW2F8tpYhtq-19" value="Event&amp;nbsp; Service" style="rounded=1;whiteSpace=wrap;html=1;fillColor=#dae8fc;strokeColor=#6c8ebf;" vertex="1" parent="1">
          <mxGeometry x="1010" y="390" width="124" height="60" as="geometry" />
        </mxCell>
        <mxCell id="kGPBkyhosEW2F8tpYhtq-20" value="Diver Match Service" style="rounded=1;whiteSpace=wrap;html=1;fillColor=#dae8fc;strokeColor=#6c8ebf;" vertex="1" parent="1">
          <mxGeometry x="1020" y="400" width="124" height="60" as="geometry" />
        </mxCell>
        <mxCell id="kGPBkyhosEW2F8tpYhtq-21" value="Event&amp;nbsp; Service" style="rounded=1;whiteSpace=wrap;html=1;fillColor=#dae8fc;strokeColor=#6c8ebf;" vertex="1" parent="1">
          <mxGeometry x="950" y="630" width="120" height="60" as="geometry" />
        </mxCell>
        <mxCell id="kGPBkyhosEW2F8tpYhtq-22" value="Event&amp;nbsp; Service" style="rounded=1;whiteSpace=wrap;html=1;fillColor=#dae8fc;strokeColor=#6c8ebf;" vertex="1" parent="1">
          <mxGeometry x="960" y="640" width="120" height="60" as="geometry" />
        </mxCell>
        <mxCell id="kGPBkyhosEW2F8tpYhtq-23" value="Location Service" style="rounded=1;whiteSpace=wrap;html=1;fillColor=#dae8fc;strokeColor=#6c8ebf;" vertex="1" parent="1">
          <mxGeometry x="970" y="650" width="120" height="60" as="geometry" />
        </mxCell>
        <mxCell id="kGPBkyhosEW2F8tpYhtq-24" value="" style="endArrow=classic;startArrow=classic;html=1;rounded=0;exitX=1.007;exitY=0.13;exitDx=0;exitDy=0;exitPerimeter=0;entryX=0;entryY=0.75;entryDx=0;entryDy=0;" edge="1" parent="1" source="kGPBkyhosEW2F8tpYhtq-13" target="kGPBkyhosEW2F8tpYhtq-15">
          <mxGeometry width="50" height="50" relative="1" as="geometry">
            <mxPoint x="880" y="280" as="sourcePoint" />
            <mxPoint x="930" y="230" as="targetPoint" />
          </mxGeometry>
        </mxCell>
        <mxCell id="kGPBkyhosEW2F8tpYhtq-25" value="" style="endArrow=classic;startArrow=classic;html=1;rounded=0;exitX=1.031;exitY=0.643;exitDx=0;exitDy=0;exitPerimeter=0;entryX=0;entryY=0.75;entryDx=0;entryDy=0;" edge="1" parent="1" source="kGPBkyhosEW2F8tpYhtq-116" target="kGPBkyhosEW2F8tpYhtq-18">
          <mxGeometry width="50" height="50" relative="1" as="geometry">
            <mxPoint x="831" y="420" as="sourcePoint" />
            <mxPoint x="940" y="430" as="targetPoint" />
          </mxGeometry>
        </mxCell>
        <mxCell id="kGPBkyhosEW2F8tpYhtq-26" value="" style="endArrow=classic;startArrow=classic;html=1;rounded=0;exitX=1.007;exitY=0.13;exitDx=0;exitDy=0;exitPerimeter=0;entryX=0;entryY=0;entryDx=0;entryDy=0;" edge="1" parent="1" target="kGPBkyhosEW2F8tpYhtq-21">
          <mxGeometry width="50" height="50" relative="1" as="geometry">
            <mxPoint x="830" y="519.5" as="sourcePoint" />
            <mxPoint x="939" y="529.5" as="targetPoint" />
          </mxGeometry>
        </mxCell>
        <mxCell id="kGPBkyhosEW2F8tpYhtq-27" value="Payment Service" style="rounded=1;whiteSpace=wrap;html=1;fillColor=#e1d5e7;strokeColor=#9673a6;fontSize=13;" vertex="1" parent="1">
          <mxGeometry x="945" y="510" width="150" height="70" as="geometry" />
        </mxCell>
        <mxCell id="kGPBkyhosEW2F8tpYhtq-28" value="" style="endArrow=classic;startArrow=classic;html=1;rounded=0;exitX=0.38;exitY=1.014;exitDx=0;exitDy=0;exitPerimeter=0;entryX=0.367;entryY=-0.071;entryDx=0;entryDy=0;entryPerimeter=0;" edge="1" parent="1" source="kGPBkyhosEW2F8tpYhtq-20" target="kGPBkyhosEW2F8tpYhtq-27">
          <mxGeometry width="50" height="50" relative="1" as="geometry">
            <mxPoint x="1000" y="460" as="sourcePoint" />
            <mxPoint x="1109" y="470" as="targetPoint" />
          </mxGeometry>
        </mxCell>
        <mxCell id="kGPBkyhosEW2F8tpYhtq-29" value="Third Party&amp;nbsp; Map Service" style="rounded=1;whiteSpace=wrap;html=1;fillColor=#e1d5e7;strokeColor=#9673a6;fontSize=14;" vertex="1" parent="1">
          <mxGeometry x="1160" y="100" width="170" height="60" as="geometry" />
        </mxCell>
        <mxCell id="kGPBkyhosEW2F8tpYhtq-30" value="" style="endArrow=classic;startArrow=classic;html=1;rounded=0;exitX=1.007;exitY=0.13;exitDx=0;exitDy=0;exitPerimeter=0;entryX=0.071;entryY=1;entryDx=0;entryDy=0;entryPerimeter=0;" edge="1" parent="1" target="kGPBkyhosEW2F8tpYhtq-29">
          <mxGeometry width="50" height="50" relative="1" as="geometry">
            <mxPoint x="1060" y="205" as="sourcePoint" />
            <mxPoint x="1169" y="180" as="targetPoint" />
          </mxGeometry>
        </mxCell>
        <mxCell id="kGPBkyhosEW2F8tpYhtq-31" value="" style="endArrow=classic;startArrow=classic;html=1;rounded=0;entryX=-0.013;entryY=0.39;entryDx=0;entryDy=0;entryPerimeter=0;" edge="1" parent="1" target="kGPBkyhosEW2F8tpYhtq-12">
          <mxGeometry width="50" height="50" relative="1" as="geometry">
            <mxPoint x="620" y="334" as="sourcePoint" />
            <mxPoint x="649" y="345" as="targetPoint" />
          </mxGeometry>
        </mxCell>
        <mxCell id="kGPBkyhosEW2F8tpYhtq-32" value="" style="endArrow=classic;startArrow=classic;html=1;rounded=0;exitX=1.007;exitY=0.13;exitDx=0;exitDy=0;exitPerimeter=0;entryX=0.087;entryY=0.545;entryDx=0;entryDy=0;entryPerimeter=0;" edge="1" parent="1" target="kGPBkyhosEW2F8tpYhtq-53">
          <mxGeometry width="50" height="50" relative="1" as="geometry">
            <mxPoint x="380" y="321" as="sourcePoint" />
            <mxPoint x="490" y="320" as="targetPoint" />
          </mxGeometry>
        </mxCell>
        <mxCell id="kGPBkyhosEW2F8tpYhtq-33" value="&lt;font style=&quot;font-size: 17px;&quot;&gt;Distributed Lock with TTL Cache (Redis)&lt;/font&gt;" style="shape=cylinder3;whiteSpace=wrap;html=1;boundedLbl=1;backgroundOutline=1;size=15;fillColor=#fa6800;fontColor=#000000;strokeColor=#C73500;" vertex="1" parent="1">
          <mxGeometry x="1220" y="454.5" width="160" height="80" as="geometry" />
        </mxCell>
        <mxCell id="kGPBkyhosEW2F8tpYhtq-34" value="" style="endArrow=classic;startArrow=classic;html=1;rounded=0;entryX=0;entryY=0.5;entryDx=0;entryDy=0;entryPerimeter=0;" edge="1" parent="1" target="kGPBkyhosEW2F8tpYhtq-33">
          <mxGeometry width="50" height="50" relative="1" as="geometry">
            <mxPoint x="1150" y="440" as="sourcePoint" />
            <mxPoint x="1189" y="432.5" as="targetPoint" />
          </mxGeometry>
        </mxCell>
        <mxCell id="kGPBkyhosEW2F8tpYhtq-36" value="" style="endArrow=classic;startArrow=classic;html=1;rounded=0;exitX=1.007;exitY=0.13;exitDx=0;exitDy=0;exitPerimeter=0;" edge="1" parent="1">
          <mxGeometry width="50" height="50" relative="1" as="geometry">
            <mxPoint x="1095" y="679.5" as="sourcePoint" />
            <mxPoint x="1210" y="679" as="targetPoint" />
          </mxGeometry>
        </mxCell>
        <mxCell id="kGPBkyhosEW2F8tpYhtq-37" value="Serach Localtion" style="rounded=1;whiteSpace=wrap;html=1;fillColor=#dae8fc;strokeColor=#6c8ebf;" vertex="1" parent="1">
          <mxGeometry x="940" y="100" width="120" height="60" as="geometry" />
        </mxCell>
        <mxCell id="kGPBkyhosEW2F8tpYhtq-38" value="" style="endArrow=classic;startArrow=classic;html=1;rounded=0;exitX=1.019;exitY=0.03;exitDx=0;exitDy=0;exitPerimeter=0;entryX=0;entryY=0.75;entryDx=0;entryDy=0;" edge="1" parent="1" source="kGPBkyhosEW2F8tpYhtq-12">
          <mxGeometry width="50" height="50" relative="1" as="geometry">
            <mxPoint x="836" y="180" as="sourcePoint" />
            <mxPoint x="945" y="155" as="targetPoint" />
          </mxGeometry>
        </mxCell>
        <mxCell id="kGPBkyhosEW2F8tpYhtq-39" value="" style="endArrow=classic;startArrow=classic;html=1;rounded=0;exitX=1.019;exitY=0.03;exitDx=0;exitDy=0;exitPerimeter=0;" edge="1" parent="1" target="kGPBkyhosEW2F8tpYhtq-29">
          <mxGeometry width="50" height="50" relative="1" as="geometry">
            <mxPoint x="1070" y="130" as="sourcePoint" />
            <mxPoint x="1202" y="60" as="targetPoint" />
          </mxGeometry>
        </mxCell>
        <mxCell id="kGPBkyhosEW2F8tpYhtq-40" value="User/Driver/Ride Data" style="shape=cylinder3;whiteSpace=wrap;html=1;boundedLbl=1;backgroundOutline=1;size=15;fillColor=#f0a30a;fontColor=#000000;strokeColor=#BD7000;" vertex="1" parent="1">
          <mxGeometry x="1360" y="210" width="145" height="80" as="geometry" />
        </mxCell>
        <mxCell id="kGPBkyhosEW2F8tpYhtq-52" value="" style="endArrow=classic;startArrow=classic;html=1;rounded=0;exitX=1.007;exitY=0.13;exitDx=0;exitDy=0;exitPerimeter=0;entryX=0;entryY=0.5;entryDx=0;entryDy=0;entryPerimeter=0;" edge="1" parent="1" target="kGPBkyhosEW2F8tpYhtq-40">
          <mxGeometry width="50" height="50" relative="1" as="geometry">
            <mxPoint x="1080" y="255" as="sourcePoint" />
            <mxPoint x="1192" y="210" as="targetPoint" />
          </mxGeometry>
        </mxCell>
        <mxCell id="kGPBkyhosEW2F8tpYhtq-53" value="CDN" style="ellipse;shape=cloud;whiteSpace=wrap;html=1;fillColor=#cce5ff;strokeColor=#36393d;" vertex="1" parent="1">
          <mxGeometry x="410" y="275" width="120" height="80" as="geometry" />
        </mxCell>
        <mxCell id="kGPBkyhosEW2F8tpYhtq-54" value="" style="endArrow=classic;startArrow=classic;html=1;rounded=0;exitX=1.007;exitY=0.13;exitDx=0;exitDy=0;exitPerimeter=0;entryX=0.087;entryY=0.545;entryDx=0;entryDy=0;entryPerimeter=0;" edge="1" parent="1">
          <mxGeometry width="50" height="50" relative="1" as="geometry">
            <mxPoint x="520" y="317" as="sourcePoint" />
            <mxPoint x="560" y="315" as="targetPoint" />
          </mxGeometry>
        </mxCell>
        <mxCell id="kGPBkyhosEW2F8tpYhtq-55" value="&lt;font style=&quot;font-size: 17px;&quot;&gt;Distributed Lock with TTL Cache (Redis)&lt;/font&gt;" style="shape=cylinder3;whiteSpace=wrap;html=1;boundedLbl=1;backgroundOutline=1;size=15;fillColor=#fa6800;fontColor=#000000;strokeColor=#C73500;" vertex="1" parent="1">
          <mxGeometry x="1220" y="640" width="160" height="80" as="geometry" />
        </mxCell>
        <mxCell id="kGPBkyhosEW2F8tpYhtq-58" value="Event&amp;nbsp; Service" style="rounded=1;whiteSpace=wrap;html=1;fillColor=#dae8fc;strokeColor=#6c8ebf;" vertex="1" parent="1">
          <mxGeometry x="470" y="620" width="120" height="60" as="geometry" />
        </mxCell>
        <mxCell id="kGPBkyhosEW2F8tpYhtq-59" value="Event&amp;nbsp; Service" style="rounded=1;whiteSpace=wrap;html=1;fillColor=#dae8fc;strokeColor=#6c8ebf;" vertex="1" parent="1">
          <mxGeometry x="480" y="630" width="120" height="60" as="geometry" />
        </mxCell>
        <mxCell id="kGPBkyhosEW2F8tpYhtq-65" style="edgeStyle=orthogonalEdgeStyle;rounded=0;orthogonalLoop=1;jettySize=auto;html=1;" edge="1" parent="1" source="kGPBkyhosEW2F8tpYhtq-60" target="kGPBkyhosEW2F8tpYhtq-110">
          <mxGeometry relative="1" as="geometry">
            <mxPoint x="340" y="500" as="targetPoint" />
          </mxGeometry>
        </mxCell>
        <mxCell id="kGPBkyhosEW2F8tpYhtq-60" value="Notification Serice" style="rounded=1;whiteSpace=wrap;html=1;fillColor=#dae8fc;strokeColor=#6c8ebf;" vertex="1" parent="1">
          <mxGeometry x="490" y="640" width="120" height="60" as="geometry" />
        </mxCell>
        <mxCell id="kGPBkyhosEW2F8tpYhtq-63" value="" style="endArrow=classic;html=1;rounded=0;entryX=1;entryY=0.5;entryDx=0;entryDy=0;exitX=0;exitY=0.75;exitDx=0;exitDy=0;edgeStyle=orthogonalEdgeStyle;curved=1;" edge="1" parent="1" source="kGPBkyhosEW2F8tpYhtq-116" target="kGPBkyhosEW2F8tpYhtq-60">
          <mxGeometry width="50" height="50" relative="1" as="geometry">
            <mxPoint x="550" y="770" as="sourcePoint" />
            <mxPoint x="600" y="720" as="targetPoint" />
            <Array as="points" />
          </mxGeometry>
        </mxCell>
        <mxCell id="kGPBkyhosEW2F8tpYhtq-66" value="Driver" style="swimlane;fontStyle=0;childLayout=stackLayout;horizontal=1;startSize=26;fillColor=#b0e3e6;horizontalStack=0;resizeParent=1;resizeParentMax=0;resizeLast=0;collapsible=1;marginBottom=0;html=1;strokeColor=#0e8088;" vertex="1" parent="1">
          <mxGeometry x="700" y="886" width="140" height="78" as="geometry" />
        </mxCell>
        <mxCell id="kGPBkyhosEW2F8tpYhtq-67" value="Item 1" style="text;strokeColor=none;fillColor=none;align=left;verticalAlign=top;spacingLeft=4;spacingRight=4;overflow=hidden;rotatable=0;points=[[0,0.5],[1,0.5]];portConstraint=eastwest;whiteSpace=wrap;html=1;fontColor=#46495D;" vertex="1" parent="kGPBkyhosEW2F8tpYhtq-66">
          <mxGeometry y="26" width="140" height="26" as="geometry" />
        </mxCell>
        <mxCell id="kGPBkyhosEW2F8tpYhtq-68" value="Item 2" style="text;strokeColor=none;fillColor=none;align=left;verticalAlign=top;spacingLeft=4;spacingRight=4;overflow=hidden;rotatable=0;points=[[0,0.5],[1,0.5]];portConstraint=eastwest;whiteSpace=wrap;html=1;fontColor=#46495D;" vertex="1" parent="kGPBkyhosEW2F8tpYhtq-66">
          <mxGeometry y="52" width="140" height="26" as="geometry" />
        </mxCell>
        <mxCell id="kGPBkyhosEW2F8tpYhtq-69" style="text;strokeColor=none;fillColor=none;align=left;verticalAlign=top;spacingLeft=4;spacingRight=4;overflow=hidden;rotatable=0;points=[[0,0.5],[1,0.5]];portConstraint=eastwest;whiteSpace=wrap;html=1;fontColor=#46495D;" vertex="1" parent="1">
          <mxGeometry x="700" y="1039" width="140" height="26" as="geometry" />
        </mxCell>
        <mxCell id="kGPBkyhosEW2F8tpYhtq-70" value="Ride" style="swimlane;fontStyle=0;childLayout=stackLayout;horizontal=1;startSize=26;fillColor=#b0e3e6;horizontalStack=0;resizeParent=1;resizeParentMax=0;resizeLast=0;collapsible=1;marginBottom=0;html=1;strokeColor=#0e8088;" vertex="1" parent="1">
          <mxGeometry x="700" y="987" width="140" height="182" as="geometry" />
        </mxCell>
        <mxCell id="kGPBkyhosEW2F8tpYhtq-71" value="User" style="text;strokeColor=none;fillColor=none;align=left;verticalAlign=top;spacingLeft=4;spacingRight=4;overflow=hidden;rotatable=0;points=[[0,0.5],[1,0.5]];portConstraint=eastwest;whiteSpace=wrap;html=1;fontColor=#46495D;" vertex="1" parent="kGPBkyhosEW2F8tpYhtq-70">
          <mxGeometry y="26" width="140" height="26" as="geometry" />
        </mxCell>
        <mxCell id="kGPBkyhosEW2F8tpYhtq-72" value="driver" style="text;strokeColor=none;fillColor=none;align=left;verticalAlign=top;spacingLeft=4;spacingRight=4;overflow=hidden;rotatable=0;points=[[0,0.5],[1,0.5]];portConstraint=eastwest;whiteSpace=wrap;html=1;fontColor=#46495D;" vertex="1" parent="kGPBkyhosEW2F8tpYhtq-70">
          <mxGeometry y="52" width="140" height="26" as="geometry" />
        </mxCell>
        <mxCell id="kGPBkyhosEW2F8tpYhtq-107" value="create_ts" style="text;strokeColor=none;fillColor=none;align=left;verticalAlign=top;spacingLeft=4;spacingRight=4;overflow=hidden;rotatable=0;points=[[0,0.5],[1,0.5]];portConstraint=eastwest;whiteSpace=wrap;html=1;fontColor=#46495D;" vertex="1" parent="kGPBkyhosEW2F8tpYhtq-70">
          <mxGeometry y="78" width="140" height="26" as="geometry" />
        </mxCell>
        <mxCell id="kGPBkyhosEW2F8tpYhtq-108" value="fare_estimater" style="text;strokeColor=none;fillColor=none;align=left;verticalAlign=top;spacingLeft=4;spacingRight=4;overflow=hidden;rotatable=0;points=[[0,0.5],[1,0.5]];portConstraint=eastwest;whiteSpace=wrap;html=1;fontColor=#46495D;" vertex="1" parent="kGPBkyhosEW2F8tpYhtq-70">
          <mxGeometry y="104" width="140" height="26" as="geometry" />
        </mxCell>
        <mxCell id="kGPBkyhosEW2F8tpYhtq-109" value="ride_id" style="text;strokeColor=none;fillColor=none;align=left;verticalAlign=top;spacingLeft=4;spacingRight=4;overflow=hidden;rotatable=0;points=[[0,0.5],[1,0.5]];portConstraint=eastwest;whiteSpace=wrap;html=1;fontColor=#46495D;" vertex="1" parent="kGPBkyhosEW2F8tpYhtq-70">
          <mxGeometry y="130" width="140" height="26" as="geometry" />
        </mxCell>
        <mxCell id="kGPBkyhosEW2F8tpYhtq-106" value="status" style="text;strokeColor=none;fillColor=none;align=left;verticalAlign=top;spacingLeft=4;spacingRight=4;overflow=hidden;rotatable=0;points=[[0,0.5],[1,0.5]];portConstraint=eastwest;whiteSpace=wrap;html=1;fontColor=#46495D;" vertex="1" parent="kGPBkyhosEW2F8tpYhtq-70">
          <mxGeometry y="156" width="140" height="26" as="geometry" />
        </mxCell>
        <mxCell id="kGPBkyhosEW2F8tpYhtq-73" value="User" style="swimlane;fontStyle=0;childLayout=stackLayout;horizontal=1;startSize=26;fillColor=#b0e3e6;horizontalStack=0;resizeParent=1;resizeParentMax=0;resizeLast=0;collapsible=1;marginBottom=0;html=1;strokeColor=#0e8088;" vertex="1" parent="1">
          <mxGeometry x="700" y="780" width="140" height="78" as="geometry" />
        </mxCell>
        <mxCell id="kGPBkyhosEW2F8tpYhtq-74" value="Item 1" style="text;strokeColor=none;fillColor=none;align=left;verticalAlign=top;spacingLeft=4;spacingRight=4;overflow=hidden;rotatable=0;points=[[0,0.5],[1,0.5]];portConstraint=eastwest;whiteSpace=wrap;html=1;fontColor=#46495D;" vertex="1" parent="kGPBkyhosEW2F8tpYhtq-73">
          <mxGeometry y="26" width="140" height="26" as="geometry" />
        </mxCell>
        <mxCell id="kGPBkyhosEW2F8tpYhtq-75" value="Item 2" style="text;strokeColor=none;fillColor=none;align=left;verticalAlign=top;spacingLeft=4;spacingRight=4;overflow=hidden;rotatable=0;points=[[0,0.5],[1,0.5]];portConstraint=eastwest;whiteSpace=wrap;html=1;fontColor=#46495D;" vertex="1" parent="kGPBkyhosEW2F8tpYhtq-73">
          <mxGeometry y="52" width="140" height="26" as="geometry" />
        </mxCell>
        <mxCell id="kGPBkyhosEW2F8tpYhtq-76" value="" style="endArrow=classic;startArrow=classic;html=1;rounded=0;exitX=0.75;exitY=0;exitDx=0;exitDy=0;entryX=0;entryY=1;entryDx=0;entryDy=-15;entryPerimeter=0;" edge="1" parent="1" source="kGPBkyhosEW2F8tpYhtq-20" target="kGPBkyhosEW2F8tpYhtq-40">
          <mxGeometry width="50" height="50" relative="1" as="geometry">
            <mxPoint x="1080" y="405" as="sourcePoint" />
            <mxPoint x="1192" y="360" as="targetPoint" />
          </mxGeometry>
        </mxCell>
        <mxCell id="kGPBkyhosEW2F8tpYhtq-78" value="" style="endArrow=classic;html=1;rounded=0;entryX=-0.022;entryY=0.331;entryDx=0;entryDy=0;entryPerimeter=0;" edge="1" parent="1" target="kGPBkyhosEW2F8tpYhtq-80">
          <mxGeometry width="50" height="50" relative="1" as="geometry">
            <mxPoint x="1080" y="270" as="sourcePoint" />
            <mxPoint x="1522.125" y="402.08000000000015" as="targetPoint" />
          </mxGeometry>
        </mxCell>
        <mxCell id="kGPBkyhosEW2F8tpYhtq-80" value="Kafka" style="strokeWidth=2;html=1;shape=mxgraph.flowchart.direct_data;whiteSpace=wrap;strokeColor=#788AA3;fontColor=#46495D;fillColor=#B2C9AB;fontSize=28;" vertex="1" parent="1">
          <mxGeometry x="1390" y="370" width="130" height="90" as="geometry" />
        </mxCell>
        <mxCell id="kGPBkyhosEW2F8tpYhtq-81" value="" style="endArrow=classic;html=1;rounded=0;exitX=1;exitY=0.25;exitDx=0;exitDy=0;" edge="1" parent="1" source="kGPBkyhosEW2F8tpYhtq-20">
          <mxGeometry width="50" height="50" relative="1" as="geometry">
            <mxPoint x="1090" y="280" as="sourcePoint" />
            <mxPoint x="1390" y="410" as="targetPoint" />
          </mxGeometry>
        </mxCell>
        <mxCell id="kGPBkyhosEW2F8tpYhtq-82" value="" style="endArrow=classic;startArrow=classic;html=1;rounded=0;exitX=1;exitY=0.75;exitDx=0;exitDy=0;entryX=0.145;entryY=0;entryDx=0;entryDy=4.35;entryPerimeter=0;" edge="1" parent="1" source="kGPBkyhosEW2F8tpYhtq-20" target="kGPBkyhosEW2F8tpYhtq-55">
          <mxGeometry width="50" height="50" relative="1" as="geometry">
            <mxPoint x="1095" y="563.5" as="sourcePoint" />
            <mxPoint x="1235" y="630" as="targetPoint" />
          </mxGeometry>
        </mxCell>
        <mxCell id="kGPBkyhosEW2F8tpYhtq-83" value="Get near by drivers" style="text;html=1;strokeColor=none;fillColor=none;align=center;verticalAlign=middle;whiteSpace=wrap;rounded=0;" vertex="1" parent="1">
          <mxGeometry x="1180" y="591" width="60" height="30" as="geometry" />
        </mxCell>
        <mxCell id="kGPBkyhosEW2F8tpYhtq-92" style="edgeStyle=orthogonalEdgeStyle;rounded=0;orthogonalLoop=1;jettySize=auto;html=1;exitX=1;exitY=0.5;exitDx=0;exitDy=0;entryX=0;entryY=0.5;entryDx=0;entryDy=0;" edge="1" parent="1" source="kGPBkyhosEW2F8tpYhtq-84" target="kGPBkyhosEW2F8tpYhtq-85">
          <mxGeometry relative="1" as="geometry" />
        </mxCell>
        <mxCell id="kGPBkyhosEW2F8tpYhtq-84" value="Spark Steaming&amp;nbsp;" style="rounded=1;whiteSpace=wrap;html=1;fillColor=#e1d5e7;strokeColor=#9673a6;" vertex="1" parent="1">
          <mxGeometry x="1630" y="390" width="120" height="60" as="geometry" />
        </mxCell>
        <mxCell id="kGPBkyhosEW2F8tpYhtq-85" value="Hadoop Cluster&amp;nbsp;" style="rounded=1;whiteSpace=wrap;html=1;fillColor=#e1d5e7;strokeColor=#9673a6;" vertex="1" parent="1">
          <mxGeometry x="1830" y="390" width="100" height="60" as="geometry" />
        </mxCell>
        <mxCell id="kGPBkyhosEW2F8tpYhtq-94" style="edgeStyle=orthogonalEdgeStyle;rounded=0;orthogonalLoop=1;jettySize=auto;html=1;entryX=0.451;entryY=0.991;entryDx=0;entryDy=0;entryPerimeter=0;" edge="1" parent="1" source="kGPBkyhosEW2F8tpYhtq-86" target="kGPBkyhosEW2F8tpYhtq-87">
          <mxGeometry relative="1" as="geometry">
            <mxPoint x="2110.0000000000005" y="240" as="targetPoint" />
          </mxGeometry>
        </mxCell>
        <mxCell id="kGPBkyhosEW2F8tpYhtq-97" style="edgeStyle=orthogonalEdgeStyle;rounded=0;orthogonalLoop=1;jettySize=auto;html=1;" edge="1" parent="1" source="kGPBkyhosEW2F8tpYhtq-86" target="kGPBkyhosEW2F8tpYhtq-89">
          <mxGeometry relative="1" as="geometry" />
        </mxCell>
        <mxCell id="kGPBkyhosEW2F8tpYhtq-86" value="Analysis/Recommendation/ML" style="rounded=1;whiteSpace=wrap;html=1;fillColor=#dae8fc;strokeColor=#6c8ebf;" vertex="1" parent="1">
          <mxGeometry x="2030" y="410" width="170" height="90" as="geometry" />
        </mxCell>
        <mxCell id="kGPBkyhosEW2F8tpYhtq-87" value="Driver Profiling" style="rounded=1;whiteSpace=wrap;html=1;fillColor=#dae8fc;strokeColor=#6c8ebf;" vertex="1" parent="1">
          <mxGeometry x="1980" y="295" width="120" height="60" as="geometry" />
        </mxCell>
        <mxCell id="kGPBkyhosEW2F8tpYhtq-88" value="User Prifiling" style="rounded=1;whiteSpace=wrap;html=1;fillColor=#dae8fc;strokeColor=#6c8ebf;" vertex="1" parent="1">
          <mxGeometry x="2140" y="290" width="120" height="60" as="geometry" />
        </mxCell>
        <mxCell id="kGPBkyhosEW2F8tpYhtq-104" style="edgeStyle=orthogonalEdgeStyle;rounded=0;orthogonalLoop=1;jettySize=auto;html=1;entryX=1;entryY=0.25;entryDx=0;entryDy=0;" edge="1" parent="1" source="kGPBkyhosEW2F8tpYhtq-89" target="kGPBkyhosEW2F8tpYhtq-103">
          <mxGeometry relative="1" as="geometry">
            <Array as="points">
              <mxPoint x="2340" y="196" />
            </Array>
          </mxGeometry>
        </mxCell>
        <mxCell id="kGPBkyhosEW2F8tpYhtq-89" value="PRice Surge&amp;nbsp;" style="rounded=1;whiteSpace=wrap;html=1;fillColor=#dae8fc;strokeColor=#6c8ebf;" vertex="1" parent="1">
          <mxGeometry x="2270" y="365" width="120" height="60" as="geometry" />
        </mxCell>
        <mxCell id="kGPBkyhosEW2F8tpYhtq-91" style="edgeStyle=orthogonalEdgeStyle;rounded=0;orthogonalLoop=1;jettySize=auto;html=1;entryX=-0.003;entryY=0.42;entryDx=0;entryDy=0;entryPerimeter=0;" edge="1" parent="1" source="kGPBkyhosEW2F8tpYhtq-80" target="kGPBkyhosEW2F8tpYhtq-84">
          <mxGeometry relative="1" as="geometry" />
        </mxCell>
        <mxCell id="kGPBkyhosEW2F8tpYhtq-93" style="edgeStyle=orthogonalEdgeStyle;rounded=0;orthogonalLoop=1;jettySize=auto;html=1;entryX=-0.006;entryY=0.435;entryDx=0;entryDy=0;entryPerimeter=0;" edge="1" parent="1" source="kGPBkyhosEW2F8tpYhtq-85" target="kGPBkyhosEW2F8tpYhtq-86">
          <mxGeometry relative="1" as="geometry" />
        </mxCell>
        <mxCell id="kGPBkyhosEW2F8tpYhtq-95" style="edgeStyle=orthogonalEdgeStyle;rounded=0;orthogonalLoop=1;jettySize=auto;html=1;entryX=0.327;entryY=1.029;entryDx=0;entryDy=0;entryPerimeter=0;" edge="1" parent="1" source="kGPBkyhosEW2F8tpYhtq-86" target="kGPBkyhosEW2F8tpYhtq-88">
          <mxGeometry relative="1" as="geometry" />
        </mxCell>
        <mxCell id="kGPBkyhosEW2F8tpYhtq-98" value="Fraud&amp;nbsp; Detection" style="rounded=1;whiteSpace=wrap;html=1;fillColor=#dae8fc;strokeColor=#6c8ebf;" vertex="1" parent="1">
          <mxGeometry x="2055" y="550" width="120" height="60" as="geometry" />
        </mxCell>
        <mxCell id="kGPBkyhosEW2F8tpYhtq-99" style="edgeStyle=orthogonalEdgeStyle;rounded=0;orthogonalLoop=1;jettySize=auto;html=1;" edge="1" parent="1" source="kGPBkyhosEW2F8tpYhtq-86" target="kGPBkyhosEW2F8tpYhtq-98">
          <mxGeometry relative="1" as="geometry" />
        </mxCell>
        <mxCell id="kGPBkyhosEW2F8tpYhtq-102" style="edgeStyle=orthogonalEdgeStyle;rounded=0;orthogonalLoop=1;jettySize=auto;html=1;exitX=0;exitY=0.5;exitDx=0;exitDy=0;entryX=1;entryY=0.25;entryDx=0;entryDy=0;" edge="1" parent="1" source="kGPBkyhosEW2F8tpYhtq-100" target="kGPBkyhosEW2F8tpYhtq-17">
          <mxGeometry relative="1" as="geometry" />
        </mxCell>
        <mxCell id="kGPBkyhosEW2F8tpYhtq-100" value="Pricing Service" style="rounded=1;whiteSpace=wrap;html=1;fillColor=#dae8fc;strokeColor=#6c8ebf;" vertex="1" parent="1">
          <mxGeometry x="1185" y="170.5" width="120" height="60" as="geometry" />
        </mxCell>
        <mxCell id="kGPBkyhosEW2F8tpYhtq-103" value="Pricing Service" style="rounded=1;whiteSpace=wrap;html=1;fillColor=#dae8fc;strokeColor=#6c8ebf;" vertex="1" parent="1">
          <mxGeometry x="1195" y="180.5" width="120" height="60" as="geometry" />
        </mxCell>
        <mxCell id="kGPBkyhosEW2F8tpYhtq-105" value="Serach Localtion" style="rounded=1;whiteSpace=wrap;html=1;fillColor=#dae8fc;strokeColor=#6c8ebf;" vertex="1" parent="1">
          <mxGeometry x="950" y="110" width="120" height="60" as="geometry" />
        </mxCell>
        <mxCell id="kGPBkyhosEW2F8tpYhtq-110" value="" style="rounded=1;whiteSpace=wrap;html=1;fillColor=#d5e8d4;strokeColor=#82b366;" vertex="1" parent="1">
          <mxGeometry x="220" y="590" width="140" height="285" as="geometry" />
        </mxCell>
        <mxCell id="kGPBkyhosEW2F8tpYhtq-111" value="Webapp" style="rounded=1;whiteSpace=wrap;html=1;" vertex="1" parent="1">
          <mxGeometry x="230" y="635" width="120" height="60" as="geometry" />
        </mxCell>
        <mxCell id="kGPBkyhosEW2F8tpYhtq-112" value="IOS" style="rounded=1;whiteSpace=wrap;html=1;" vertex="1" parent="1">
          <mxGeometry x="230" y="715" width="120" height="60" as="geometry" />
        </mxCell>
        <mxCell id="kGPBkyhosEW2F8tpYhtq-113" value="Android" style="rounded=1;whiteSpace=wrap;html=1;" vertex="1" parent="1">
          <mxGeometry x="230" y="785" width="120" height="60" as="geometry" />
        </mxCell>
        <mxCell id="kGPBkyhosEW2F8tpYhtq-114" value="Driver" style="text;html=1;strokeColor=none;fillColor=none;align=center;verticalAlign=middle;whiteSpace=wrap;rounded=0;" vertex="1" parent="1">
          <mxGeometry x="250" y="560" width="60" height="30" as="geometry" />
        </mxCell>
        <mxCell id="kGPBkyhosEW2F8tpYhtq-115" value="" style="endArrow=classic;startArrow=classic;html=1;rounded=0;exitX=1.018;exitY=0.058;exitDx=0;exitDy=0;exitPerimeter=0;" edge="1" parent="1" source="kGPBkyhosEW2F8tpYhtq-110">
          <mxGeometry width="50" height="50" relative="1" as="geometry">
            <mxPoint x="390" y="331" as="sourcePoint" />
            <mxPoint x="560" y="440" as="targetPoint" />
          </mxGeometry>
        </mxCell>
        <mxCell id="kGPBkyhosEW2F8tpYhtq-118" value="" style="endArrow=classic;startArrow=classic;html=1;rounded=0;exitX=1.007;exitY=0.13;exitDx=0;exitDy=0;exitPerimeter=0;entryX=0;entryY=0.75;entryDx=0;entryDy=0;" edge="1" parent="1" target="kGPBkyhosEW2F8tpYhtq-116">
          <mxGeometry width="50" height="50" relative="1" as="geometry">
            <mxPoint x="831" y="420" as="sourcePoint" />
            <mxPoint x="1000" y="425" as="targetPoint" />
            <Array as="points">
              <mxPoint x="840" y="425" />
            </Array>
          </mxGeometry>
        </mxCell>
        <mxCell id="kGPBkyhosEW2F8tpYhtq-116" value="Kafka" style="strokeWidth=2;html=1;shape=mxgraph.flowchart.direct_data;whiteSpace=wrap;strokeColor=#788AA3;fontColor=#46495D;fillColor=#B2C9AB;fontSize=28;" vertex="1" parent="1">
          <mxGeometry x="850" y="360" width="130" height="90" as="geometry" />
        </mxCell>
        <mxCell id="kGPBkyhosEW2F8tpYhtq-119" value="&lt;span style=&quot;font-size: 32px;&quot;&gt;logging and monitoring&amp;nbsp;&lt;/span&gt;" style="rounded=0;whiteSpace=wrap;html=1;fillColor=#fff2cc;strokeColor=#d6b656;" vertex="1" parent="1">
          <mxGeometry x="450" y="1360" width="2080" height="61" as="geometry" />
        </mxCell>
        <mxCell id="kGPBkyhosEW2F8tpYhtq-120" value="&lt;span style=&quot;font-size: 32px;&quot;&gt;Auto-scaling/Down-scaling&lt;/span&gt;" style="rounded=0;whiteSpace=wrap;html=1;fillColor=#fff2cc;strokeColor=#d6b656;" vertex="1" parent="1">
          <mxGeometry x="440" y="1260" width="2090" height="61" as="geometry" />
        </mxCell>
        <mxCell id="kGPBkyhosEW2F8tpYhtq-121" value="" style="shape=actor;whiteSpace=wrap;html=1;strokeColor=#788AA3;fontColor=#46495D;fillColor=#B2C9AB;" vertex="1" parent="1">
          <mxGeometry x="170" y="723" width="40" height="60" as="geometry" />
        </mxCell>
        <mxCell id="kGPBkyhosEW2F8tpYhtq-122" value="" style="shape=actor;whiteSpace=wrap;html=1;strokeColor=#788AA3;fontColor=#46495D;fillColor=#B2C9AB;" vertex="1" parent="1">
          <mxGeometry x="170" y="798" width="40" height="60" as="geometry" />
        </mxCell>
        <mxCell id="kGPBkyhosEW2F8tpYhtq-123" value="" style="shape=actor;whiteSpace=wrap;html=1;strokeColor=#788AA3;fontColor=#46495D;fillColor=#B2C9AB;" vertex="1" parent="1">
          <mxGeometry x="170" y="628" width="40" height="60" as="geometry" />
        </mxCell>
      </root>
    </mxGraphModel>
  </diagram>
</mxfile>
